<mxfile host="Electron" agent="Mozilla/5.0 (Windows NT 10.0; Win64; x64) AppleWebKit/537.36 (KHTML, like Gecko) draw.io/26.1.1 Chrome/132.0.6834.210 Electron/34.3.3 Safari/537.36" version="26.1.1">
  <diagram name="Page-1" id="2YBvvXClWsGukQMizWep">
    <mxGraphModel dx="3453" dy="3120" grid="1" gridSize="10" guides="1" tooltips="1" connect="1" arrows="1" fold="1" page="1" pageScale="1" pageWidth="850" pageHeight="1100" math="0" shadow="0">
      <root>
        <mxCell id="0" />
        <mxCell id="1" parent="0" />
        <mxCell id="k1BPt4xFjhslmdRLRVa1-23" style="edgeStyle=orthogonalEdgeStyle;rounded=0;orthogonalLoop=1;jettySize=auto;html=1;entryX=0;entryY=0;entryDx=0;entryDy=0;" edge="1" parent="1" source="k1BPt4xFjhslmdRLRVa1-1" target="k1BPt4xFjhslmdRLRVa1-16">
          <mxGeometry relative="1" as="geometry" />
        </mxCell>
        <mxCell id="k1BPt4xFjhslmdRLRVa1-27" style="edgeStyle=orthogonalEdgeStyle;rounded=0;orthogonalLoop=1;jettySize=auto;html=1;" edge="1" parent="1" source="k1BPt4xFjhslmdRLRVa1-1" target="k1BPt4xFjhslmdRLRVa1-25">
          <mxGeometry relative="1" as="geometry" />
        </mxCell>
        <mxCell id="k1BPt4xFjhslmdRLRVa1-40" style="edgeStyle=orthogonalEdgeStyle;rounded=0;orthogonalLoop=1;jettySize=auto;html=1;entryX=0;entryY=0.5;entryDx=0;entryDy=0;" edge="1" parent="1" source="k1BPt4xFjhslmdRLRVa1-1" target="k1BPt4xFjhslmdRLRVa1-39">
          <mxGeometry relative="1" as="geometry">
            <Array as="points">
              <mxPoint x="585" y="30" />
              <mxPoint x="725" y="30" />
              <mxPoint x="725" />
            </Array>
          </mxGeometry>
        </mxCell>
        <mxCell id="k1BPt4xFjhslmdRLRVa1-1" value="empleado" style="shape=umlActor;verticalLabelPosition=bottom;verticalAlign=top;html=1;outlineConnect=0;" vertex="1" parent="1">
          <mxGeometry x="570" y="200" width="30" height="60" as="geometry" />
        </mxCell>
        <mxCell id="k1BPt4xFjhslmdRLRVa1-24" style="edgeStyle=orthogonalEdgeStyle;rounded=0;orthogonalLoop=1;jettySize=auto;html=1;" edge="1" parent="1" source="k1BPt4xFjhslmdRLRVa1-4" target="k1BPt4xFjhslmdRLRVa1-16">
          <mxGeometry relative="1" as="geometry" />
        </mxCell>
        <mxCell id="k1BPt4xFjhslmdRLRVa1-28" style="edgeStyle=orthogonalEdgeStyle;rounded=0;orthogonalLoop=1;jettySize=auto;html=1;" edge="1" parent="1" source="k1BPt4xFjhslmdRLRVa1-4" target="k1BPt4xFjhslmdRLRVa1-25">
          <mxGeometry relative="1" as="geometry" />
        </mxCell>
        <mxCell id="k1BPt4xFjhslmdRLRVa1-32" style="edgeStyle=orthogonalEdgeStyle;rounded=0;orthogonalLoop=1;jettySize=auto;html=1;entryX=0.5;entryY=0;entryDx=0;entryDy=0;" edge="1" parent="1" source="k1BPt4xFjhslmdRLRVa1-4" target="k1BPt4xFjhslmdRLRVa1-31">
          <mxGeometry relative="1" as="geometry" />
        </mxCell>
        <mxCell id="k1BPt4xFjhslmdRLRVa1-4" value="Administrador" style="shape=umlActor;verticalLabelPosition=bottom;verticalAlign=top;html=1;outlineConnect=0;" vertex="1" parent="1">
          <mxGeometry x="600" y="-70" width="30" height="60" as="geometry" />
        </mxCell>
        <mxCell id="k1BPt4xFjhslmdRLRVa1-21" style="edgeStyle=orthogonalEdgeStyle;rounded=0;orthogonalLoop=1;jettySize=auto;html=1;entryX=1;entryY=0.5;entryDx=0;entryDy=0;" edge="1" parent="1" source="k1BPt4xFjhslmdRLRVa1-5" target="k1BPt4xFjhslmdRLRVa1-16">
          <mxGeometry relative="1" as="geometry" />
        </mxCell>
        <mxCell id="k1BPt4xFjhslmdRLRVa1-29" style="edgeStyle=orthogonalEdgeStyle;rounded=0;orthogonalLoop=1;jettySize=auto;html=1;" edge="1" parent="1" source="k1BPt4xFjhslmdRLRVa1-5" target="k1BPt4xFjhslmdRLRVa1-25">
          <mxGeometry relative="1" as="geometry" />
        </mxCell>
        <mxCell id="k1BPt4xFjhslmdRLRVa1-52" style="edgeStyle=orthogonalEdgeStyle;rounded=0;orthogonalLoop=1;jettySize=auto;html=1;entryX=0;entryY=0.5;entryDx=0;entryDy=0;" edge="1" parent="1" source="k1BPt4xFjhslmdRLRVa1-5" target="k1BPt4xFjhslmdRLRVa1-51">
          <mxGeometry relative="1" as="geometry" />
        </mxCell>
        <mxCell id="k1BPt4xFjhslmdRLRVa1-54" style="edgeStyle=orthogonalEdgeStyle;rounded=0;orthogonalLoop=1;jettySize=auto;html=1;entryX=0;entryY=0;entryDx=0;entryDy=0;" edge="1" parent="1" source="k1BPt4xFjhslmdRLRVa1-5" target="k1BPt4xFjhslmdRLRVa1-53">
          <mxGeometry relative="1" as="geometry" />
        </mxCell>
        <mxCell id="k1BPt4xFjhslmdRLRVa1-5" value="Encargado de Servicios" style="shape=umlActor;verticalLabelPosition=bottom;verticalAlign=top;html=1;outlineConnect=0;" vertex="1" parent="1">
          <mxGeometry x="740" y="150" width="30" height="60" as="geometry" />
        </mxCell>
        <mxCell id="k1BPt4xFjhslmdRLRVa1-22" style="edgeStyle=orthogonalEdgeStyle;rounded=0;orthogonalLoop=1;jettySize=auto;html=1;entryX=0;entryY=0.5;entryDx=0;entryDy=0;" edge="1" parent="1" source="k1BPt4xFjhslmdRLRVa1-8" target="k1BPt4xFjhslmdRLRVa1-16">
          <mxGeometry relative="1" as="geometry" />
        </mxCell>
        <mxCell id="k1BPt4xFjhslmdRLRVa1-26" style="edgeStyle=orthogonalEdgeStyle;rounded=0;orthogonalLoop=1;jettySize=auto;html=1;entryX=1;entryY=0.5;entryDx=0;entryDy=0;" edge="1" parent="1" source="k1BPt4xFjhslmdRLRVa1-8" target="k1BPt4xFjhslmdRLRVa1-25">
          <mxGeometry relative="1" as="geometry" />
        </mxCell>
        <mxCell id="k1BPt4xFjhslmdRLRVa1-36" style="edgeStyle=orthogonalEdgeStyle;rounded=0;orthogonalLoop=1;jettySize=auto;html=1;entryX=0.5;entryY=0;entryDx=0;entryDy=0;" edge="1" parent="1" source="k1BPt4xFjhslmdRLRVa1-8" target="k1BPt4xFjhslmdRLRVa1-35">
          <mxGeometry relative="1" as="geometry" />
        </mxCell>
        <mxCell id="k1BPt4xFjhslmdRLRVa1-8" value="&#xa;Encargado de Marketing&#xa;&#xa;" style="shape=umlActor;verticalLabelPosition=bottom;verticalAlign=top;html=1;outlineConnect=0;" vertex="1" parent="1">
          <mxGeometry x="610" y="320" width="30" height="60" as="geometry" />
        </mxCell>
        <mxCell id="k1BPt4xFjhslmdRLRVa1-18" style="edgeStyle=orthogonalEdgeStyle;rounded=0;orthogonalLoop=1;jettySize=auto;html=1;entryX=0;entryY=0.5;entryDx=0;entryDy=0;" edge="1" parent="1" source="k1BPt4xFjhslmdRLRVa1-9" target="k1BPt4xFjhslmdRLRVa1-15">
          <mxGeometry relative="1" as="geometry" />
        </mxCell>
        <mxCell id="k1BPt4xFjhslmdRLRVa1-19" style="edgeStyle=orthogonalEdgeStyle;rounded=0;orthogonalLoop=1;jettySize=auto;html=1;" edge="1" parent="1" source="k1BPt4xFjhslmdRLRVa1-9" target="k1BPt4xFjhslmdRLRVa1-17">
          <mxGeometry relative="1" as="geometry" />
        </mxCell>
        <mxCell id="k1BPt4xFjhslmdRLRVa1-20" style="edgeStyle=orthogonalEdgeStyle;rounded=0;orthogonalLoop=1;jettySize=auto;html=1;" edge="1" parent="1" source="k1BPt4xFjhslmdRLRVa1-9" target="k1BPt4xFjhslmdRLRVa1-16">
          <mxGeometry relative="1" as="geometry" />
        </mxCell>
        <mxCell id="k1BPt4xFjhslmdRLRVa1-30" style="edgeStyle=orthogonalEdgeStyle;rounded=0;orthogonalLoop=1;jettySize=auto;html=1;" edge="1" parent="1" source="k1BPt4xFjhslmdRLRVa1-9" target="k1BPt4xFjhslmdRLRVa1-25">
          <mxGeometry relative="1" as="geometry" />
        </mxCell>
        <mxCell id="k1BPt4xFjhslmdRLRVa1-34" style="edgeStyle=orthogonalEdgeStyle;rounded=0;orthogonalLoop=1;jettySize=auto;html=1;" edge="1" parent="1" source="k1BPt4xFjhslmdRLRVa1-9" target="k1BPt4xFjhslmdRLRVa1-33">
          <mxGeometry relative="1" as="geometry">
            <Array as="points">
              <mxPoint x="745" y="430" />
              <mxPoint x="990" y="430" />
            </Array>
          </mxGeometry>
        </mxCell>
        <mxCell id="k1BPt4xFjhslmdRLRVa1-9" value="cliente" style="shape=umlActor;verticalLabelPosition=bottom;verticalAlign=top;html=1;outlineConnect=0;" vertex="1" parent="1">
          <mxGeometry x="730" y="280" width="30" height="60" as="geometry" />
        </mxCell>
        <mxCell id="k1BPt4xFjhslmdRLRVa1-15" value="&lt;div&gt;&lt;br&gt;&lt;/div&gt;Registro de Cliente&amp;nbsp;&lt;div&gt;&lt;br&gt;&lt;/div&gt;" style="ellipse;whiteSpace=wrap;html=1;" vertex="1" parent="1">
          <mxGeometry x="925" y="160" width="120" height="80" as="geometry" />
        </mxCell>
        <mxCell id="k1BPt4xFjhslmdRLRVa1-16" value="Inicio de Sesión&amp;nbsp;" style="ellipse;whiteSpace=wrap;html=1;" vertex="1" parent="1">
          <mxGeometry x="120" y="570" width="120" height="80" as="geometry" />
        </mxCell>
        <mxCell id="k1BPt4xFjhslmdRLRVa1-17" value="Modificacion de&lt;div&gt;&amp;nbsp;Perfil&lt;/div&gt;" style="ellipse;whiteSpace=wrap;html=1;" vertex="1" parent="1">
          <mxGeometry x="1090" y="230" width="120" height="80" as="geometry" />
        </mxCell>
        <mxCell id="k1BPt4xFjhslmdRLRVa1-25" value="Cerrar Sesion" style="ellipse;whiteSpace=wrap;html=1;" vertex="1" parent="1">
          <mxGeometry x="140" y="-100" width="120" height="80" as="geometry" />
        </mxCell>
        <mxCell id="k1BPt4xFjhslmdRLRVa1-31" value="&lt;div&gt;Gestión de Usuarios&lt;/div&gt;&lt;div&gt;(CRUD)&lt;/div&gt;" style="ellipse;whiteSpace=wrap;html=1;" vertex="1" parent="1">
          <mxGeometry x="750" y="670" width="120" height="80" as="geometry" />
        </mxCell>
        <mxCell id="k1BPt4xFjhslmdRLRVa1-33" value="&lt;div&gt;Gestión de Citas&lt;/div&gt;&lt;div&gt;(CRUD)&lt;/div&gt;" style="ellipse;whiteSpace=wrap;html=1;" vertex="1" parent="1">
          <mxGeometry x="930" y="500" width="120" height="80" as="geometry" />
        </mxCell>
        <mxCell id="k1BPt4xFjhslmdRLRVa1-35" value="&lt;div&gt;Gestión de Anuncios&lt;/div&gt;&lt;div&gt;(CRUD)&lt;/div&gt;" style="ellipse;whiteSpace=wrap;html=1;" vertex="1" parent="1">
          <mxGeometry x="490" y="720" width="120" height="80" as="geometry" />
        </mxCell>
        <mxCell id="k1BPt4xFjhslmdRLRVa1-39" value="&lt;div&gt;Visualización de Citas Asignadas&lt;/div&gt;" style="ellipse;whiteSpace=wrap;html=1;" vertex="1" parent="1">
          <mxGeometry x="850" y="-40" width="120" height="80" as="geometry" />
        </mxCell>
        <mxCell id="k1BPt4xFjhslmdRLRVa1-41" value="Marcar Cita como Atendida" style="ellipse;whiteSpace=wrap;html=1;" vertex="1" parent="1">
          <mxGeometry x="1110" y="-70" width="120" height="80" as="geometry" />
        </mxCell>
        <mxCell id="k1BPt4xFjhslmdRLRVa1-44" style="edgeStyle=orthogonalEdgeStyle;rounded=0;orthogonalLoop=1;jettySize=auto;html=1;entryX=0.962;entryY=0.325;entryDx=0;entryDy=0;entryPerimeter=0;dashed=1;" edge="1" parent="1" source="k1BPt4xFjhslmdRLRVa1-41" target="k1BPt4xFjhslmdRLRVa1-39">
          <mxGeometry relative="1" as="geometry" />
        </mxCell>
        <mxCell id="k1BPt4xFjhslmdRLRVa1-45" value="extends" style="edgeLabel;html=1;align=center;verticalAlign=middle;resizable=0;points=[];" vertex="1" connectable="0" parent="k1BPt4xFjhslmdRLRVa1-44">
          <mxGeometry x="-0.0465" y="-7" relative="1" as="geometry">
            <mxPoint as="offset" />
          </mxGeometry>
        </mxCell>
        <mxCell id="k1BPt4xFjhslmdRLRVa1-46" value="Generación de Factura" style="ellipse;whiteSpace=wrap;html=1;" vertex="1" parent="1">
          <mxGeometry x="470" y="-170" width="120" height="80" as="geometry" />
        </mxCell>
        <mxCell id="k1BPt4xFjhslmdRLRVa1-47" style="edgeStyle=orthogonalEdgeStyle;rounded=0;orthogonalLoop=1;jettySize=auto;html=1;entryX=0.5;entryY=0.5;entryDx=0;entryDy=0;entryPerimeter=0;" edge="1" parent="1" source="k1BPt4xFjhslmdRLRVa1-46" target="k1BPt4xFjhslmdRLRVa1-1">
          <mxGeometry relative="1" as="geometry">
            <Array as="points">
              <mxPoint x="530" y="55" />
              <mxPoint x="570" y="55" />
              <mxPoint x="570" y="230" />
            </Array>
          </mxGeometry>
        </mxCell>
        <mxCell id="k1BPt4xFjhslmdRLRVa1-49" value="&lt;span style=&quot;line-height: 115%;&quot;&gt;&lt;font face=&quot;Helvetica&quot;&gt;Mostrar Catálogo de&lt;br&gt;Servicios&lt;/font&gt;&lt;/span&gt;" style="ellipse;whiteSpace=wrap;html=1;" vertex="1" parent="1">
          <mxGeometry x="1040" y="690" width="120" height="80" as="geometry" />
        </mxCell>
        <mxCell id="k1BPt4xFjhslmdRLRVa1-50" style="edgeStyle=orthogonalEdgeStyle;rounded=0;orthogonalLoop=1;jettySize=auto;html=1;entryX=0.429;entryY=0.046;entryDx=0;entryDy=0;entryPerimeter=0;" edge="1" parent="1" source="k1BPt4xFjhslmdRLRVa1-33" target="k1BPt4xFjhslmdRLRVa1-49">
          <mxGeometry relative="1" as="geometry" />
        </mxCell>
        <mxCell id="k1BPt4xFjhslmdRLRVa1-51" value="&lt;div&gt;Gestión de Serviicios&lt;/div&gt;&lt;div&gt;(CRUD)&lt;/div&gt;" style="ellipse;whiteSpace=wrap;html=1;" vertex="1" parent="1">
          <mxGeometry x="1030" y="50" width="120" height="80" as="geometry" />
        </mxCell>
        <mxCell id="k1BPt4xFjhslmdRLRVa1-53" value="&lt;span style=&quot;line-height: 115%;&quot;&gt;&lt;font face=&quot;Helvetica&quot;&gt;Visualización de Reportes&lt;/font&gt;&lt;/span&gt;" style="ellipse;whiteSpace=wrap;html=1;" vertex="1" parent="1">
          <mxGeometry x="1070" y="370" width="120" height="80" as="geometry" />
        </mxCell>
        <mxCell id="k1BPt4xFjhslmdRLRVa1-56" value="extends" style="edgeStyle=orthogonalEdgeStyle;rounded=0;orthogonalLoop=1;jettySize=auto;html=1;entryX=1;entryY=0;entryDx=0;entryDy=0;dashed=1;" edge="1" parent="1" source="k1BPt4xFjhslmdRLRVa1-55" target="k1BPt4xFjhslmdRLRVa1-39">
          <mxGeometry relative="1" as="geometry" />
        </mxCell>
        <mxCell id="k1BPt4xFjhslmdRLRVa1-55" value="&lt;span style=&quot;line-height: 115%;&quot;&gt;&lt;font face=&quot;Helvetica&quot;&gt;Marcar Cliente como No&lt;br/&gt;Presentado&lt;/font&gt;&lt;/span&gt;" style="ellipse;whiteSpace=wrap;html=1;" vertex="1" parent="1">
          <mxGeometry x="990" y="-170" width="120" height="80" as="geometry" />
        </mxCell>
        <mxCell id="k1BPt4xFjhslmdRLRVa1-58" value="extends" style="edgeStyle=orthogonalEdgeStyle;rounded=0;orthogonalLoop=1;jettySize=auto;html=1;entryX=0;entryY=0;entryDx=0;entryDy=0;dashed=1;" edge="1" parent="1" source="k1BPt4xFjhslmdRLRVa1-57" target="k1BPt4xFjhslmdRLRVa1-46">
          <mxGeometry relative="1" as="geometry" />
        </mxCell>
        <mxCell id="k1BPt4xFjhslmdRLRVa1-57" value="Registro de pago" style="ellipse;whiteSpace=wrap;html=1;" vertex="1" parent="1">
          <mxGeometry x="440" y="-340" width="120" height="80" as="geometry" />
        </mxCell>
        <mxCell id="k1BPt4xFjhslmdRLRVa1-60" value="extends" style="edgeStyle=orthogonalEdgeStyle;rounded=0;orthogonalLoop=1;jettySize=auto;html=1;entryX=0.5;entryY=1;entryDx=0;entryDy=0;dashed=1;" edge="1" parent="1" source="k1BPt4xFjhslmdRLRVa1-59" target="k1BPt4xFjhslmdRLRVa1-35">
          <mxGeometry relative="1" as="geometry" />
        </mxCell>
        <mxCell id="k1BPt4xFjhslmdRLRVa1-59" value="&lt;div&gt;Registro de pago anuncios&lt;/div&gt;" style="ellipse;whiteSpace=wrap;html=1;" vertex="1" parent="1">
          <mxGeometry x="500" y="860" width="120" height="80" as="geometry" />
        </mxCell>
        <mxCell id="k1BPt4xFjhslmdRLRVa1-61" value="&lt;div&gt;Visuallizacion de reportes&lt;/div&gt;" style="ellipse;whiteSpace=wrap;html=1;" vertex="1" parent="1">
          <mxGeometry x="685" y="870" width="120" height="80" as="geometry" />
        </mxCell>
        <mxCell id="k1BPt4xFjhslmdRLRVa1-62" style="edgeStyle=orthogonalEdgeStyle;rounded=0;orthogonalLoop=1;jettySize=auto;html=1;entryX=1;entryY=0.3333333333333333;entryDx=0;entryDy=0;entryPerimeter=0;" edge="1" parent="1" source="k1BPt4xFjhslmdRLRVa1-61" target="k1BPt4xFjhslmdRLRVa1-8">
          <mxGeometry relative="1" as="geometry" />
        </mxCell>
        <mxCell id="k1BPt4xFjhslmdRLRVa1-66" value="gestión de horarios del salon" style="ellipse;whiteSpace=wrap;html=1;" vertex="1" parent="1">
          <mxGeometry x="490" y="-470" width="120" height="80" as="geometry" />
        </mxCell>
        <mxCell id="k1BPt4xFjhslmdRLRVa1-67" style="edgeStyle=orthogonalEdgeStyle;rounded=0;orthogonalLoop=1;jettySize=auto;html=1;entryX=0.25;entryY=0.1;entryDx=0;entryDy=0;entryPerimeter=0;" edge="1" parent="1" source="k1BPt4xFjhslmdRLRVa1-66" target="k1BPt4xFjhslmdRLRVa1-4">
          <mxGeometry relative="1" as="geometry" />
        </mxCell>
        <mxCell id="k1BPt4xFjhslmdRLRVa1-68" value="gestión de clientes en lista negra" style="ellipse;whiteSpace=wrap;html=1;" vertex="1" parent="1">
          <mxGeometry x="730" y="-440" width="120" height="80" as="geometry" />
        </mxCell>
        <mxCell id="k1BPt4xFjhslmdRLRVa1-69" style="edgeStyle=orthogonalEdgeStyle;rounded=0;orthogonalLoop=1;jettySize=auto;html=1;entryX=0.5;entryY=0.5;entryDx=0;entryDy=0;entryPerimeter=0;" edge="1" parent="1" source="k1BPt4xFjhslmdRLRVa1-68" target="k1BPt4xFjhslmdRLRVa1-4">
          <mxGeometry relative="1" as="geometry">
            <Array as="points">
              <mxPoint x="640" y="-400" />
              <mxPoint x="640" y="-40" />
            </Array>
          </mxGeometry>
        </mxCell>
        <mxCell id="k1BPt4xFjhslmdRLRVa1-70" value="gestión de precio de anuncios" style="ellipse;whiteSpace=wrap;html=1;" vertex="1" parent="1">
          <mxGeometry x="760" y="-350" width="120" height="80" as="geometry" />
        </mxCell>
        <mxCell id="k1BPt4xFjhslmdRLRVa1-71" style="edgeStyle=orthogonalEdgeStyle;rounded=0;orthogonalLoop=1;jettySize=auto;html=1;entryX=0.75;entryY=0.1;entryDx=0;entryDy=0;entryPerimeter=0;" edge="1" parent="1" source="k1BPt4xFjhslmdRLRVa1-70" target="k1BPt4xFjhslmdRLRVa1-4">
          <mxGeometry relative="1" as="geometry" />
        </mxCell>
        <mxCell id="k1BPt4xFjhslmdRLRVa1-72" value="visualizcion de reportes" style="ellipse;whiteSpace=wrap;html=1;" vertex="1" parent="1">
          <mxGeometry x="750" y="-270" width="120" height="80" as="geometry" />
        </mxCell>
        <mxCell id="k1BPt4xFjhslmdRLRVa1-73" style="edgeStyle=orthogonalEdgeStyle;rounded=0;orthogonalLoop=1;jettySize=auto;html=1;entryX=0.75;entryY=0.1;entryDx=0;entryDy=0;entryPerimeter=0;" edge="1" parent="1" source="k1BPt4xFjhslmdRLRVa1-72" target="k1BPt4xFjhslmdRLRVa1-4">
          <mxGeometry relative="1" as="geometry" />
        </mxCell>
      </root>
    </mxGraphModel>
  </diagram>
</mxfile>
